<svg width="265" height="265" viewBox="0 0 265 265" fill="none" xmlns="http://www.w3.org/2000/svg">
<g clip-path="url(#clip0_1924_47004)">
<path d="M198.75 165.625C198.75 147.334 213.584 132.5 231.875 132.5H265V66.25H231.875C213.584 66.25 198.75 51.4156 198.75 33.125V0H66.25V33.125C66.25 51.4156 51.4156 66.25 33.125 66.25H0V132.5H33.125C51.4156 132.5 66.25 147.334 66.25 165.625C66.25 183.916 51.4156 198.75 33.125 198.75H0V265H66.25V231.875C66.25 213.584 81.0844 198.75 99.375 198.75H165.625C183.916 198.75 198.75 213.584 198.75 231.875V265H265V198.75H231.875C213.584 198.75 198.75 183.916 198.75 165.625V165.625ZM99.375 132.5C81.0844 132.5 66.25 117.666 66.25 99.375C66.25 81.0844 81.0844 66.25 99.375 66.25H165.625C183.916 66.25 198.75 81.0844 198.75 99.375C198.75 117.666 183.916 132.5 165.625 132.5H99.375Z" fill="black"/>
</g>
<defs>
<clipPath id="clip0_1924_47004">
<rect width="265" height="265" fill="white"/>
</clipPath>
</defs>
</svg>
