<svg width="117" height="78" viewBox="0 0 117 78" fill="none" xmlns="http://www.w3.org/2000/svg">
<path d="M19.4929 29.1457C19.4929 23.7813 23.8577 19.4305 29.2394 19.4305H48.6772C54.0895 19.4305 58.4788 15.0553 58.4788 9.66028V0H19.4929V9.71524C19.4929 15.0797 15.1282 19.4305 9.74647 19.4305H0V38.861H19.4929V29.1457Z" fill="white"/>
<path d="M19.4929 38.8608V48.5761C19.4929 53.9405 15.1282 58.2913 9.74647 58.2913H0V77.7218H19.4929V68.0066C19.4929 62.6421 23.8577 58.2913 29.2394 58.2913H48.6772C54.0895 58.2913 58.4788 53.9161 58.4788 48.5211V38.8608H19.4929Z" fill="white"/>
<path d="M97.464 48.5761C97.464 53.9405 93.0993 58.2913 87.7176 58.2913H68.2798C62.8674 58.2913 58.4781 62.6665 58.4781 68.0615V77.7218H97.464V68.0066C97.464 62.6421 101.829 58.2913 107.211 58.2913H116.957V38.8608H97.464V48.5761Z" fill="white"/>
<path d="M97.464 29.1457C97.464 23.7813 101.829 19.4305 107.211 19.4305H116.957V0H97.464V9.71524C97.464 15.0797 93.0993 19.4305 87.7176 19.4305H68.2798C62.8674 19.4305 58.4781 23.8057 58.4781 29.2007V38.861H97.464V29.1457Z" fill="white"/>
</svg>
