<svg width="786" height="78" viewBox="0 0 786 78" fill="none" xmlns="http://www.w3.org/2000/svg">
<path d="M0.422119 77.9997V0.277832H56.7795V13.9354H15.7945V33.5889H53.9986V47.3536H15.7945V77.9997H0.422119Z" fill="white"/>
<path d="M64.9441 77.9997V0.277832H188.866V13.9354H80.1971V31.6973H184.402V45.1289H80.1971V64.2232H188.854V77.9879H64.9441V77.9997Z" fill="white"/>
<path d="M662.077 77.9997V0.277832H785.999V13.9354H677.342V31.6973H781.547V45.1289H677.342V64.2232H785.999V77.9879H662.077V77.9997Z" fill="white"/>
<path d="M197.673 77.9997V0.277832H292.199C307.01 0.277832 317.37 9.37891 317.37 22.4892C317.37 32.3755 310.125 40.1441 299.324 42.7019C305.005 43.5942 309.123 46.9253 311.128 52.1361L320.926 77.9997H304.552L295.97 54.682C294.968 51.684 292.294 50.0184 288.845 50.0184H213.033V77.9997H197.661H197.673ZM213.045 36.694H290.969C298.321 36.694 302.224 31.0311 302.224 25.1422C302.224 18.9201 298.107 13.9235 290.969 13.9235H213.045V36.6821V36.694Z" fill="white"/>
<path d="M324.842 77.9997L356.589 0.277832H371.854L403.709 77.9997H387.776L380.65 60.3449H347.901L340.775 77.9997H324.842ZM353.462 46.9134H375.065L364.264 20.2645L353.462 46.9134Z" fill="white"/>
<path d="M407.623 77.9997V0.277832H422.996V64.2351H461.868V77.9997H407.623Z" fill="white"/>
<path d="M506.576 77.9997V0.277832H562.933V13.9354H521.948V33.5889H560.152V47.3536H521.948V77.9997H506.576Z" fill="white"/>
<path d="M571.038 77.9997V0.277832H586.41V77.9997H571.038Z" fill="white"/>
<path d="M599.671 77.9997V0.277832H615.043V64.2351H653.916V77.9997H599.671Z" fill="white"/>
</svg>
