<svg width="228" height="35" viewBox="0 0 228 35" fill="none" xmlns="http://www.w3.org/2000/svg">
<path d="M27.8712 34.5063V8.84755L21.4871 34.5063H14.2648L7.9616 8.77057V34.5063H0V0H13.0304L18.2758 21.8183L23.5855 0H36.4952V34.5063H27.8679H27.8712ZM94.8981 34.5063H103.525V0H90.6151L85.3027 21.8183L80.054 0H67.0269V34.5063H74.9885V8.77057L81.2917 34.5063H88.514L94.8981 8.84755V34.5063ZM47.6183 22.0499V23.2019C47.6183 27.5786 49.357 29.3697 51.7282 29.3697C54.1836 29.3697 55.9203 27.5779 55.9203 23.2019V22.0499C55.9203 17.5956 54.183 15.8847 51.7282 15.8847C49.3577 15.8847 47.6183 17.5956 47.6183 22.0499ZM39.4457 22.3518C39.4457 14.574 45.2392 10.3069 51.61 10.3069C58.0718 10.3069 64.081 14.5794 64.081 22.3585V22.8655C64.081 30.8145 58.0712 35 51.6094 35C45.2332 35 39.4384 30.8138 39.4384 22.8648V22.3565L39.4457 22.3518ZM128.293 28.5362H116.136L114.244 34.5063H106.116L117.298 0H128.088L138.643 34.5063H130.102L128.297 28.5362H128.293ZM122.44 8.35182L118.319 21.9032H126.372L122.439 8.35182H122.44Z" fill="black"/>
<g clip-path="url(#clip0_18_154)">
<path d="M183.888 13.125C183.888 10.7093 185.847 8.75 188.263 8.75H196.988C199.418 8.75 201.388 6.77974 201.388 4.35025V0H183.888V4.375C183.888 6.79074 181.929 8.75 179.513 8.75H175.138V17.5H183.888V13.125Z" fill="black"/>
<path d="M183.888 21.875C183.888 24.2907 181.929 26.25 179.513 26.25H175.138V35H183.888V30.625C183.888 28.2093 185.847 26.25 188.263 26.25H196.988C199.418 26.25 201.388 24.2797 201.388 21.8503V17.5H183.888V21.875Z" fill="black"/>
</g>
<g clip-path="url(#clip1_18_154)">
<path d="M218.888 21.875C218.888 24.2907 216.929 26.25 214.513 26.25L205.788 26.25C203.358 26.25 201.388 28.2203 201.388 30.6497L201.388 35L218.888 35L218.888 30.625C218.888 28.2093 220.847 26.25 223.263 26.25L227.638 26.25L227.638 17.5L218.888 17.5L218.888 21.875Z" fill="black"/>
<path d="M218.888 13.125C218.888 10.7093 220.847 8.75 223.263 8.75L227.638 8.75L227.638 3.8147e-06L218.888 3.04975e-06L218.888 4.375C218.888 6.79074 216.929 8.75 214.513 8.75L205.788 8.75C203.358 8.75 201.388 10.7203 201.388 13.1497L201.388 17.5L218.888 17.5L218.888 13.125Z" fill="black"/>
</g>
<defs>
<clipPath id="clip0_18_154">
<rect width="26.25" height="35" fill="white" transform="translate(175.138)"/>
</clipPath>
<clipPath id="clip1_18_154">
<rect width="26.25" height="35" fill="white" transform="translate(227.638 35) rotate(-180)"/>
</clipPath>
</defs>
</svg>
