<svg width="716" height="110" viewBox="0 0 716 110" fill="none" xmlns="http://www.w3.org/2000/svg">
<path d="M87.5954 108.448V27.8066L67.5309 108.448H44.8322L25.0222 27.5647V108.448H0V0H40.9528L57.4382 68.5717L74.1259 0H114.699V108.448H87.5849H87.5954ZM298.251 108.448H325.365V0H284.79L268.094 68.5717L251.598 0H210.656V108.448H235.678V27.5647L255.488 108.448H278.187L298.251 27.8066V108.448ZM149.658 69.2996V72.9204C149.658 86.6756 155.122 92.3049 162.574 92.3049C170.291 92.3049 175.75 86.6735 175.75 72.9204V69.2996C175.75 55.3003 170.289 49.9234 162.574 49.9234C155.124 49.9234 149.658 55.3003 149.658 69.2996ZM123.972 70.2486C123.972 45.8041 142.18 32.3931 162.203 32.3931C182.512 32.3931 201.398 45.8208 201.398 70.2694V71.8629C201.398 96.8455 182.509 110 162.201 110C142.162 110 123.949 96.8434 123.949 71.8608V70.2632L123.972 70.2486ZM403.208 89.6852H364.998L359.054 108.448H333.508L368.652 0H402.561L435.735 108.448H408.892L403.219 89.6852H403.208ZM384.812 26.2486L371.86 68.8386H397.17L384.808 26.2486H384.812Z" fill="white"/>
<g clip-path="url(#clip0_18_138)">
<path d="M577.934 41.25C577.934 33.6577 584.091 27.5 591.684 27.5H619.106C626.741 27.5 632.934 21.3077 632.934 13.6722V0H577.934V13.75C577.934 21.3423 571.776 27.5 564.184 27.5H550.434V55H577.934V41.25Z" fill="white"/>
<path d="M577.934 68.75C577.934 76.3423 571.776 82.5 564.184 82.5H550.434V110H577.934V96.25C577.934 88.6577 584.091 82.5 591.684 82.5H619.106C626.741 82.5 632.934 76.3077 632.934 68.6722V55H577.934V68.75Z" fill="white"/>
</g>
<g clip-path="url(#clip1_18_138)">
<path d="M687.934 68.75C687.934 76.3423 681.776 82.5 674.184 82.5L646.761 82.5C639.126 82.5 632.934 88.6922 632.934 96.3278L632.934 110L687.934 110L687.934 96.25C687.934 88.6577 694.091 82.5 701.684 82.5L715.434 82.5L715.434 55L687.934 55L687.934 68.75Z" fill="white"/>
<path d="M687.934 41.25C687.934 33.6577 694.091 27.5 701.684 27.5L715.434 27.5L715.434 7.62939e-06L687.934 5.22527e-06L687.934 13.75C687.934 21.3423 681.776 27.5 674.184 27.5L646.761 27.5C639.126 27.5 632.934 33.6922 632.934 41.3278L632.934 55L687.934 55L687.934 41.25Z" fill="white"/>
</g>
<defs>
<clipPath id="clip0_18_138">
<rect width="82.5" height="110" fill="white" transform="translate(550.434)"/>
</clipPath>
<clipPath id="clip1_18_138">
<rect width="82.5" height="110" fill="white" transform="translate(715.434 110) rotate(-180)"/>
</clipPath>
</defs>
</svg>
